<svg width="40" height="40" viewBox="0 0 40 40" fill="none" xmlns="http://www.w3.org/2000/svg">
<path d="M20 0.00032352C8.95419 0 0 8.95406 0 20C0 31.0459 8.95419 40 20 40C31.0458 40 40 31.0456 40 20C40 8.95438 31.0458 0 20 0" fill="#44D058"/>
<path fill-rule="evenodd" clip-rule="evenodd" d="M17.1462 23.5351L25.4872 15.4183C26.0601 14.8608 26.9871 14.8589 27.5667 15.4228C28.1422 15.9828 28.1452 16.8879 27.5713 17.4464L18.1836 26.5817C17.8987 26.8589 17.5263 26.9988 17.1526 27C16.7678 26.9972 16.3943 26.8595 16.1138 26.5866L11.9263 22.5117C11.3561 21.9568 11.3564 21.0569 11.936 20.493C12.5115 19.9329 13.4479 19.9363 14.0104 20.4836L17.1462 23.5351Z" fill="white"/>
</svg>
