<svg width="25" height="25" viewBox="0 0 25 25" fill="none" xmlns="http://www.w3.org/2000/svg">
<path fill-rule="evenodd" clip-rule="evenodd" d="M20.4142 1.5286C19.6332 0.747548 18.3669 0.747548 17.5858 1.5286L8.17399 10.9404C7.49048 11.6239 7.00557 12.4804 6.77112 13.4181L5.7065 17.6766C5.5929 18.131 5.72603 18.6116 6.05721 18.9428C6.38839 19.274 6.86906 19.4071 7.32341 19.2935L11.5819 18.2289C12.5197 17.9945 13.3761 17.5096 14.0596 16.826L23.4714 7.41421C24.2525 6.63316 24.2525 5.36683 23.4714 4.58579L20.4142 1.5286ZM18.7643 4.12132C18.8945 3.99115 19.1056 3.99115 19.2357 4.12132L20.8787 5.7643C21.0089 5.89447 21.0089 6.10553 20.8787 6.2357L12.174 14.9404C11.8322 15.2822 11.404 15.5246 10.9351 15.6419L9.3715 16.0328C9.12736 16.0938 8.90625 15.8727 8.96725 15.6285L9.35815 14.0649C9.47538 13.596 9.71786 13.1678 10.0596 12.826L18.7643 4.12132Z" fill="#4360DF"/>
<path d="M3.00004 7.33333C3.00004 6.59696 3.59701 6 4.33337 6H8.33337C9.06974 6 9.66671 5.40305 9.66671 4.66667C9.66671 3.93029 9.06974 3.33333 8.33337 3.33333H4.33337C2.12423 3.33333 0.333374 5.12419 0.333374 7.33333V20.6667C0.333374 22.8758 2.12423 24.6667 4.33337 24.6667H17.6667C19.8759 24.6667 21.6667 22.8758 21.6667 20.6667V16.6667C21.6667 15.9303 21.0697 15.3333 20.3334 15.3333C19.597 15.3333 19 15.9303 19 16.6667V20.6667C19 21.403 18.4031 22 17.6667 22H4.33337C3.59701 22 3.00004 21.403 3.00004 20.6667V7.33333Z" fill="#4360DF"/>
</svg>
