<svg width="32" height="32" viewBox="0 0 32 32" fill="none" xmlns="http://www.w3.org/2000/svg">
<path d="M16 27.7333C22.4801 27.7333 27.7333 22.4801 27.7333 16C27.7333 9.51985 22.4801 4.26666 16 4.26666C9.51985 4.26666 4.26666 9.51985 4.26666 16C4.26666 22.4801 9.51985 27.7333 16 27.7333Z" fill="#A8B6F0" fill-opacity="0.2" stroke="#4360DF" stroke-width="2.6" stroke-miterlimit="10" stroke-linecap="round" stroke-linejoin="round"/>
<path d="M20.8 17.0667C21.6837 17.0667 22.4 16.3503 22.4 15.4667C22.4 14.583 21.6837 13.8667 20.8 13.8667C19.9164 13.8667 19.2 14.583 19.2 15.4667C19.2 16.3503 19.9164 17.0667 20.8 17.0667Z" fill="#4360DF"/>
<path d="M11.2 17.0667C12.0836 17.0667 12.8 16.3503 12.8 15.4667C12.8 14.583 12.0836 13.8667 11.2 13.8667C10.3163 13.8667 9.59998 14.583 9.59998 15.4667C9.59998 16.3503 10.3163 17.0667 11.2 17.0667Z" fill="#4360DF"/>
<path d="M12.8661 21.3333C13.6 21.8667 14.6667 22.4 16 22.4C17.3333 22.4 18.4 21.8667 19.1328 21.3333" stroke="#4360DF" stroke-width="2.13333" stroke-miterlimit="10" stroke-linecap="round" stroke-linejoin="round"/>
</svg>
