<svg width="40" height="40" viewBox="0 0 40 40" fill="none" xmlns="http://www.w3.org/2000/svg">
<circle opacity="0.1" cx="20" cy="20" r="20" fill="#4360DF"/>
<path fill-rule="evenodd" clip-rule="evenodd" d="M21 19V14.0068C21 13.4499 20.5523 13 20 13C19.4439 13 19 13.4508 19 14.0068V19H14.0068C13.4499 19 13 19.4477 13 20C13 20.5561 13.4508 21 14.0068 21H19V25.9932C19 26.5501 19.4477 27 20 27C20.5561 27 21 26.5492 21 25.9932V21H25.9932C26.5501 21 27 20.5523 27 20C27 19.4439 26.5492 19 25.9932 19H21Z" fill="#4360DF"/>
</svg>
