<svg width="36" height="36" viewBox="0 0 36 36" fill="none" xmlns="http://www.w3.org/2000/svg">
<path fill-rule="evenodd" clip-rule="evenodd" d="M18 0C8.05886 0 0 8.05896 0 18C0 27.9411 8.05886 36 18 36C27.9411 36 36 27.9411 36 18C36 8.05896 27.9411 0 18 0Z" fill="#4360DF"/>
<path fill-rule="evenodd" clip-rule="evenodd" d="M18.0659 17.211C18.9718 17.3051 19.8778 17.3992 20.9917 17.3372C24.0095 17.1694 25.8376 15.6241 25.7078 13.3143C25.5756 10.9641 23.1436 9.51622 20.7102 9.65157C16.7446 9.87203 13.8284 13.3455 13.5 17.3155C14.0386 17.1897 14.6054 17.1145 15.14 17.0848C16.2539 17.0229 17.1599 17.117 18.0659 17.211ZM10.292 22.3488C10.4172 24.5032 12.7212 25.8303 15.0266 25.7063C18.7835 25.5041 21.5463 22.3201 21.8573 18.6809C21.3471 18.7963 20.8101 18.8652 20.3037 18.8924C19.2484 18.9492 18.3901 18.863 17.5317 18.7768C16.6734 18.6905 15.8151 18.6043 14.7599 18.6611C11.901 18.8149 10.169 20.2314 10.292 22.3488Z" fill="white"/>
</svg>
