<svg width="18" height="20" viewBox="0 0 18 20" fill="none" xmlns="http://www.w3.org/2000/svg">
<path fill-rule="evenodd" clip-rule="evenodd" d="M6.59141 2.75746C6.7027 2.3123 7.10268 2 7.56155 2H10.4384C10.8973 2 11.2973 2.3123 11.4086 2.75746L11.7192 4H6.28078L6.59141 2.75746ZM4.97909 6C4.99357 6.00032 5.00802 6.00031 5.02242 6H12.9776C12.992 6.00031 13.0064 6.00032 13.0209 6H17C17.5523 6 18 5.55228 18 5C18 4.44772 17.5523 4 17 4H13.7808L13.3489 2.27239C13.015 0.936892 11.8151 0 10.4384 0H7.56155C6.18495 0 4.985 0.936891 4.65113 2.27239L4.21922 4H1C0.447715 4 0 4.44772 0 5C0 5.55228 0.447715 6 1 6H4.97909ZM2.9005 8.00496C3.45004 7.95001 3.94008 8.35095 3.99504 8.9005L4.81494 17.0995C4.86606 17.6107 5.29622 18 5.80998 18H12.19C12.7038 18 13.1339 17.6107 13.1851 17.0995L14.005 8.9005C14.0599 8.35095 14.55 7.95001 15.0995 8.00496C15.649 8.05992 16.05 8.54996 15.995 9.0995L15.1751 17.2985C15.0218 18.8321 13.7313 20 12.19 20H5.80998C4.26872 20 2.97822 18.8321 2.82486 17.2985L2.00496 9.0995C1.95001 8.54996 2.35095 8.05992 2.9005 8.00496Z" fill="black"/>
</svg>
