<svg width="30" height="30" viewBox="0 0 30 30" fill="none" xmlns="http://www.w3.org/2000/svg">
<path fill-rule="evenodd" clip-rule="evenodd" d="M7.50861 5C5.43433 5 3.75006 6.67786 3.75006 8.75305V21.2469C3.75006 23.3137 5.43555 25 7.50861 25H22.4915C24.5658 25 26.2501 23.3221 26.2501 21.2469V8.75305C26.2501 6.68625 24.5646 5 22.4915 5H7.50861ZM6.25006 21.2469V12.5H23.7501V21.2469C23.7501 21.9389 23.1876 22.5 22.4915 22.5H7.50861C6.81342 22.5 6.25006 21.9302 6.25006 21.2469ZM23.7501 10H6.25006V8.75305C6.25006 8.06107 6.8125 7.5 7.50861 7.5H22.4915C23.1867 7.5 23.7501 8.06976 23.7501 8.75305V10ZM20.0001 15C19.3049 15 18.7501 15.5649 18.7501 16.2617V18.7382C18.7501 19.4458 19.3098 20 20.0001 20C20.6953 20 21.2501 19.4351 21.2501 18.7382V16.2617C21.2501 15.5542 20.6904 15 20.0001 15Z" fill="#4360DF"/>
</svg>
